<?xml version="1.0" standalone="no"?>
<!DOCTYPE svg PUBLIC "-//W3C//DTD SVG 20010904//EN"
 "http://www.w3.org/TR/2001/REC-SVG-20010904/DTD/svg10.dtd">
<svg version="1.0" xmlns="http://www.w3.org/2000/svg"
 width="2493.000000pt" height="2493.000000pt" viewBox="0 0 2493.000000 2493.000000"
 preserveAspectRatio="xMidYMid meet">
<metadata>
Created by potrace 1.11, written by Peter Selinger 2001-2013
</metadata>
<g transform="translate(0.000000,2493.000000) scale(0.100000,-0.100000)"
fill="#000000" stroke="none">
<path d="M24875 22250 c-68 -26 -366 -131 -385 -135 -8 -2 -80 -27 -160 -55
-137 -49 -211 -74 -590 -205 -85 -30 -261 -91 -390 -135 -129 -45 -255 -89
-280 -97 -25 -8 -54 -18 -65 -23 -11 -5 -49 -18 -85 -30 -57 -20 -285 -98
-635 -220 -123 -42 -357 -124 -1125 -390 -289 -100 -628 -218 -755 -262 -126
-44 -338 -117 -470 -163 -132 -46 -260 -91 -285 -100 -25 -9 -52 -18 -60 -20
-45 -11 -305 -106 -318 -117 -9 -7 -23 -18 -32 -25 -8 -7 -121 -91 -250 -187
-129 -96 -239 -178 -245 -183 -5 -4 -80 -60 -165 -123 -85 -63 -162 -120 -170
-127 -8 -7 -103 -77 -210 -157 -107 -80 -199 -149 -205 -153 -5 -5 -44 -33
-85 -64 -162 -121 -687 -513 -715 -534 -40 -31 -752 -563 -930 -695 -77 -57
-145 -109 -152 -114 -7 -6 -81 -62 -165 -124 -148 -109 -1317 -983 -1368
-1022 -14 -11 -86 -64 -160 -119 -74 -55 -139 -104 -145 -108 -5 -4 -98 -73
-205 -153 -107 -80 -202 -151 -210 -157 -13 -11 -901 -674 -974 -728 -15 -11
-51 -38 -80 -60 -29 -22 -65 -49 -80 -60 -16 -11 -43 -31 -60 -45 -18 -14 -45
-34 -60 -45 -16 -11 -53 -39 -84 -62 -30 -23 -60 -39 -66 -36 -6 4 -36 26 -66
49 -30 22 -325 242 -655 489 -583 435 -840 627 -860 642 -13 11 -89 67 -840
628 -781 583 -808 603 -820 613 -5 4 -26 19 -45 32 -19 14 -37 28 -40 31 -3 3
-57 44 -120 90 -157 117 -1152 861 -1165 871 -5 5 -71 54 -145 109 -74 55
-146 108 -160 119 -14 10 -83 62 -155 115 -71 53 -141 105 -155 115 -72 54
-997 746 -1265 945 -268 200 -319 234 -380 254 -38 12 -79 27 -90 31 -11 5
-40 15 -65 23 -25 8 -151 52 -280 97 -382 133 -490 170 -585 201 -49 17 -99
34 -110 39 -11 5 -47 18 -80 29 -33 11 -145 50 -250 86 -408 142 -712 248
-762 264 -29 9 -55 20 -59 24 -4 4 -15 7 -25 7 -10 0 -33 7 -51 14 -18 8 -91
35 -163 60 -71 25 -254 87 -405 140 -151 52 -367 127 -480 166 -113 39 -230
80 -260 90 -30 10 -147 51 -260 90 -113 40 -268 94 -345 120 -77 27 -243 85
-370 128 -126 44 -318 110 -425 147 -107 37 -202 69 -210 72 -109 41 -290 100
-290 95 0 -4 34 -59 75 -122 41 -63 87 -135 101 -160 15 -25 51 -81 80 -125
60 -93 287 -448 351 -550 54 -87 49 -79 156 -244 48 -75 96 -152 107 -171 12
-19 33 -54 48 -77 28 -43 419 -658 527 -827 53 -84 160 -251 207 -324 9 -15
23 -37 30 -49 7 -12 85 -135 173 -273 88 -138 235 -368 327 -513 92 -144 217
-341 278 -437 61 -96 147 -231 191 -300 43 -69 83 -132 89 -140 6 -8 44 -69
86 -135 138 -220 603 -950 611 -961 4 -5 13 -19 19 -30 7 -10 102 -161 212
-334 111 -173 229 -360 264 -415 34 -55 66 -101 70 -103 5 -2 8 -7 8 -12 0 -7
69 -117 333 -530 47 -74 114 -180 149 -235 34 -55 66 -101 70 -103 5 -2 8 -8
8 -13 0 -5 24 -46 54 -92 47 -73 144 -225 171 -270 19 -31 619 -973 670 -1052
64 -99 252 -394 315 -495 41 -67 507 -800 565 -890 49 -76 135 -211 205 -320
40 -63 87 -137 105 -165 58 -91 239 -376 400 -630 87 -137 181 -286 210 -330
28 -44 84 -132 124 -195 67 -106 288 -454 423 -665 32 -50 152 -238 267 -420
115 -181 234 -368 264 -415 128 -200 450 -707 461 -725 6 -11 13 -22 16 -25 3
-3 12 -17 20 -31 8 -14 96 -152 195 -307 99 -155 190 -298 203 -319 12 -21
146 -231 296 -468 151 -236 310 -485 353 -553 150 -237 196 -307 232 -362 20
-30 39 -62 44 -70 4 -8 20 -34 35 -58 124 -193 280 -438 292 -457 23 -37 170
-268 212 -333 20 -31 47 -74 60 -95 18 -30 347 -546 560 -879 15 -24 31 -49
34 -57 4 -7 30 -49 58 -91 28 -43 83 -128 121 -189 39 -61 104 -164 145 -228
42 -65 161 -252 265 -416 105 -164 218 -342 252 -395 34 -53 72 -113 83 -132
11 -19 47 -75 80 -125 33 -49 66 -103 72 -118 l13 -28 38 63 c21 35 78 126
127 203 50 77 114 177 143 223 28 46 75 118 103 161 28 43 90 141 138 217 48
77 121 191 161 254 113 177 277 436 305 480 23 37 991 1560 1183 1860 44 69
105 165 136 213 31 49 77 121 102 160 25 40 74 117 109 172 35 55 82 129 105
165 95 149 321 504 336 528 9 15 231 365 494 777 263 413 485 762 494 777 20
35 460 724 524 820 26 40 50 80 54 88 4 8 48 78 97 156 50 77 96 148 101 157
6 9 96 150 200 313 105 163 199 312 210 330 26 42 242 384 310 489 29 44 96
150 150 235 101 161 121 191 223 350 34 52 150 236 259 407 219 346 736 1160
821 1293 62 96 114 179 147 230 12 19 38 60 58 90 44 68 1384 2175 1406 2212
18 30 451 710 600 943 53 82 101 157 106 167 6 10 66 105 135 213 69 107 177
277 241 378 189 298 888 1398 924 1452 17 28 60 95 95 150 35 55 77 123 95
150 18 28 65 102 105 165 40 63 88 138 105 165 31 47 303 475 392 615 23 36
98 155 168 265 69 110 198 313 286 450 88 138 168 264 178 280 10 17 43 68 73
115 30 47 103 162 162 255 60 94 118 186 131 205 89 138 140 221 133 219 -2 0
-25 -9 -53 -19z"/>
</g>
</svg>
